<svg width="20" height="20" viewBox="0 0 20 20" fill="none" xmlns="http://www.w3.org/2000/svg">
<g id="icon:call">
<path id="Vector" d="M4.6424 6.57233C4.40365 4.99983 5.5124 3.58733 7.20615 3.06983C7.50672 2.97793 7.83102 3.00409 8.11297 3.14298C8.39492 3.28186 8.61331 3.52303 8.72365 3.81733L9.2674 5.26733C9.35493 5.5006 9.37076 5.7547 9.31285 5.99702C9.25494 6.23935 9.12594 6.45884 8.9424 6.62733L7.3249 8.10858C7.24517 8.18174 7.18576 8.27432 7.15246 8.37728C7.11916 8.48025 7.11311 8.59008 7.1349 8.69608L7.1499 8.76108L7.18865 8.92358C7.3898 9.71314 7.69631 10.472 8.0999 11.1798C8.53954 11.932 9.08513 12.6169 9.7199 13.2136L9.7699 13.2586C9.85065 13.3303 9.94859 13.3798 10.0542 13.4024C10.1598 13.4249 10.2694 13.4197 10.3724 13.3873L12.4636 12.7286C12.7013 12.654 12.9559 12.6521 13.1946 12.7231C13.4334 12.7941 13.6454 12.9349 13.8036 13.1273L14.7936 14.3286C15.2061 14.8286 15.1561 15.5636 14.6824 16.0048C13.3861 17.2136 11.6036 17.4611 10.3636 16.4648C8.84368 15.2388 7.56234 13.7435 6.58365 12.0536C5.59701 10.365 4.93922 8.50537 4.6424 6.57233ZM8.44615 8.77858L9.78615 7.54858C10.1534 7.21175 10.4117 6.77283 10.5277 6.28817C10.6438 5.80351 10.6123 5.29523 10.4374 4.82858L9.8949 3.37858C9.67283 2.78639 9.23331 2.30115 8.66592 2.02175C8.09852 1.74235 7.44594 1.68981 6.84115 1.87483C4.7374 2.51858 3.04865 4.40483 3.40615 6.76108C3.65615 8.40608 4.2324 10.4986 5.50365 12.6836C6.55954 14.5057 7.94172 16.118 9.58115 17.4398C11.4411 18.9336 13.9236 18.4236 15.5361 16.9211C15.9975 16.4915 16.2776 15.902 16.3192 15.2729C16.3608 14.6439 16.1607 14.0227 15.7599 13.5361L14.7699 12.3336C14.4532 11.9492 14.0289 11.6681 13.5514 11.5265C13.0739 11.3848 12.565 11.3891 12.0899 11.5386L10.3536 12.0848C9.90536 11.6226 9.51269 11.1095 9.18365 10.5561C8.8658 9.99653 8.6181 9.39995 8.44615 8.77983V8.77858Z" fill="white"/>
</g>
</svg>
