<svg width="80" height="80" viewBox="0 0 80 80" fill="none" xmlns="http://www.w3.org/2000/svg">
<g id="icon: eqipment">
<g id="Group">
<path id="Vector" d="M44.698 34.1253H24.1783C23.8527 34.1253 23.5969 33.8695 23.5969 33.5439C23.5969 33.2184 23.8527 32.9626 24.1783 32.9626H44.6868C45.0123 32.9626 45.2681 33.2184 45.2681 33.5439C45.2681 33.8695 45.0123 34.1253 44.6984 34.1253H44.698ZM44.698 30.0562H24.1783C23.8527 30.0562 23.5969 29.8004 23.5969 29.4748C23.5969 29.1493 23.8527 28.8935 24.1783 28.8935H44.6868C45.0123 28.8935 45.2681 29.1493 45.2681 29.4748C45.2681 29.8004 45.0123 30.0562 44.6984 30.0562H44.698Z" fill="#FAFF00"/>
<path id="Vector_2" d="M23.0274 39.415H21.737C20.7838 39.415 20.0046 38.6362 20.0046 37.6826V25.3469C20.0046 24.3937 20.7834 23.6145 21.737 23.6145H23.0274C23.9806 23.6145 24.7597 24.3933 24.7597 25.3469V37.6826C24.7597 38.6362 23.9923 39.415 23.0274 39.415ZM21.737 24.7773C21.4232 24.7773 21.1673 25.0331 21.1673 25.3469V37.6939C21.1673 38.0077 21.4232 38.2636 21.737 38.2636H23.0274C23.3412 38.2636 23.5971 38.0077 23.5971 37.6939V25.3469C23.5971 25.0331 23.3412 24.7773 23.0274 24.7773H21.737Z" fill="#FAFF00"/>
<path id="Vector_3" d="M19.4344 37.1485H18.144C17.1908 37.1485 16.4116 36.3697 16.4116 35.4161V27.6148C16.4116 26.6616 17.1904 25.8824 18.144 25.8824H19.4344C20.3876 25.8824 21.1667 26.6612 21.1667 27.6148C21.1667 27.9403 20.9109 28.1962 20.5854 28.1962C20.2599 28.1962 20.004 27.9403 20.004 27.6148C20.004 27.301 19.7482 27.0451 19.4344 27.0451L18.144 27.0455C17.8301 27.0455 17.5743 27.3013 17.5743 27.6152V35.4165C17.5743 35.7303 17.8301 35.9861 18.144 35.9861H19.4344C19.7482 35.9861 20.004 35.7303 20.004 35.4165C20.004 35.0909 20.2599 34.8351 20.5854 34.8351C20.9109 34.8351 21.1667 35.0909 21.1667 35.4165C21.1667 36.3697 20.388 37.1485 19.4344 37.1485Z" fill="#FAFF00"/>
<path id="Vector_4" d="M15.8421 35.5789H14.5517C13.5985 35.5789 12.8193 34.8001 12.8193 33.8465V29.1845C12.8193 28.2312 13.5981 27.4521 14.5517 27.4521H15.8421C16.7953 27.4521 17.5744 28.2309 17.5744 29.1845C17.5744 29.51 17.3186 29.7658 16.9931 29.7658C16.6676 29.7658 16.4117 29.51 16.4117 29.1845C16.4117 28.8706 16.1559 28.6148 15.8421 28.6148H14.5517C14.2378 28.6148 13.982 28.8706 13.982 29.1845V33.8465C13.982 34.1604 14.2378 34.4162 14.5517 34.4162H15.8421C16.1559 34.4162 16.4117 34.1604 16.4117 33.8465C16.4117 33.521 16.6676 33.2652 16.9931 33.2652C17.3186 33.2652 17.5744 33.521 17.5744 33.8465C17.5744 34.8001 16.7953 35.5789 15.8421 35.5789Z" fill="#FAFF00"/>
<path id="Vector_5" d="M13.4009 34.1253H10.0643C9.73873 34.1253 9.48291 33.8695 9.48291 33.5439V29.4748C9.48291 29.1493 9.73873 28.8935 10.0643 28.8935H13.4009C13.7264 28.8935 13.9823 29.1493 13.9823 29.4748C13.9823 29.8004 13.7264 30.0562 13.4009 30.0562H10.6456V32.9625H13.4009C13.7264 32.9625 13.9823 33.2184 13.9823 33.5439C13.9823 33.8694 13.7264 34.1253 13.4009 34.1253Z" fill="#FAFF00"/>
<path id="Vector_6" d="M44.698 16.4531H24.1783C23.8527 16.4531 23.5969 16.1973 23.5969 15.8718C23.5969 15.5462 23.8527 15.2904 24.1783 15.2904H44.6868C45.0123 15.2904 45.2681 15.5462 45.2681 15.8718C45.2681 16.1973 45.0123 16.4531 44.6984 16.4531H44.698ZM44.698 12.384H24.1783C23.8527 12.384 23.5969 12.1282 23.5969 11.8027C23.5969 11.4771 23.8527 11.2213 24.1783 11.2213H44.6868C45.0123 11.2213 45.2681 11.4771 45.2681 11.8027C45.2681 12.1282 45.0123 12.384 44.6984 12.384H44.698Z" fill="#FAFF00"/>
<path id="Vector_7" d="M22.6321 21.7437H20.8998C19.7254 21.7437 18.7722 20.7905 18.7722 19.6162V8.05962C18.7722 6.88528 19.7254 5.93207 20.8998 5.93207H22.6321C23.8065 5.93207 24.7597 6.88528 24.7597 8.05962V19.6041C24.7597 20.7897 23.8065 21.743 22.6321 21.743V21.7437ZM20.8998 7.09483C20.3651 7.09483 19.9349 7.52509 19.9349 8.05971V19.6041C19.9349 20.1388 20.3651 20.569 20.8998 20.569H22.6321C23.1668 20.569 23.597 20.1388 23.597 19.6041V8.05971C23.597 7.52507 23.1668 7.09483 22.6321 7.09483H20.8998Z" fill="#FAFF00"/>
<path id="Vector_8" d="M17.8067 18.047H16.0743C14.9 18.047 13.9468 17.0938 13.9468 15.9195V11.7573C13.9468 10.583 14.9 9.62976 16.0743 9.62976H17.8067C18.981 9.62976 19.9342 10.583 19.9342 11.7573C19.9342 12.0828 19.6784 12.3387 19.3529 12.3387C19.0274 12.3387 18.7715 12.0828 18.7715 11.7573C18.7715 11.2227 18.3413 10.7924 17.8067 10.7924L16.0743 10.7921C15.5397 10.7921 15.1094 11.2223 15.1094 11.7569V15.9074C15.1094 16.442 15.5397 16.8723 16.0743 16.8723H17.8067C18.3413 16.8723 18.7715 16.442 18.7715 15.9074C18.7715 15.5819 19.0274 15.3261 19.3529 15.3261C19.6784 15.3261 19.9342 15.5819 19.9342 15.9074C19.9342 17.0934 18.981 18.047 17.8067 18.047Z" fill="#FAFF00"/>
<path id="Vector_9" d="M47.9773 21.7437H46.245C45.0706 21.7437 44.1174 20.7905 44.1174 19.6162V8.05962C44.1174 6.88528 45.0706 5.93207 46.245 5.93207H47.9773C49.1517 5.93207 50.1049 6.88528 50.1049 8.05962V19.6041C50.1049 20.7897 49.1517 21.743 47.9773 21.743V21.7437ZM46.245 7.09483C45.7103 7.09483 45.2801 7.52509 45.2801 8.05971V19.6041C45.2801 20.1388 45.7104 20.569 46.245 20.569H47.9773C48.512 20.569 48.9422 20.1388 48.9422 19.6041V8.05971C48.9422 7.52507 48.512 7.09483 47.9773 7.09483H46.245Z" fill="#FAFF00"/>
<path id="Vector_10" d="M52.8138 18.047H51.0814C49.9071 18.047 48.9539 17.0938 48.9539 15.9195C48.9539 15.5939 49.2097 15.3381 49.5352 15.3381C49.8607 15.3381 50.1166 15.5939 50.1166 15.9195C50.1166 16.4541 50.5468 16.8843 51.0814 16.8843H52.8138C53.3485 16.8843 53.7787 16.4541 53.7787 15.9195V11.7573C53.7787 11.2227 53.3484 10.7924 52.8138 10.7924H51.0814C50.5468 10.7924 50.1166 11.2227 50.1166 11.7573C50.1166 12.0828 49.8607 12.3387 49.5352 12.3387C49.2097 12.3387 48.9539 12.0828 48.9539 11.7573C48.9539 10.583 49.9071 9.62976 51.0814 9.62976H52.8138C53.9881 9.62976 54.9413 10.583 54.9413 11.7573V15.9078C54.9413 17.0934 53.9877 18.047 52.8138 18.047Z" fill="#FAFF00"/>
<path id="Vector_11" d="M44.698 51.8086H24.1783C23.8527 51.8086 23.5969 51.5528 23.5969 51.2272C23.5969 50.9017 23.8527 50.6459 24.1783 50.6459H44.6868C45.0123 50.6459 45.2681 50.9017 45.2681 51.2272C45.2681 51.5528 45.0123 51.8086 44.6984 51.8086H44.698ZM44.698 47.7391H24.1783C23.8527 47.7391 23.5969 47.4833 23.5969 47.1578C23.5969 46.8322 23.8527 46.5764 24.1783 46.5764H44.6868C45.0123 46.5764 45.2681 46.8322 45.2681 47.1578C45.2681 47.4837 45.0123 47.7391 44.6984 47.7391H44.698Z" fill="#FAFF00"/>
<path id="Vector_12" d="M22.6321 57.0983H20.8998C19.7254 57.0983 18.7722 56.1451 18.7722 54.9708V43.4263C18.7722 42.252 19.7254 41.2988 20.8998 41.2988H22.6321C23.8065 41.2988 24.7597 42.252 24.7597 43.4263V54.9708C24.7597 56.1451 23.8065 57.0983 22.6321 57.0983ZM20.8998 42.4494C20.3651 42.4494 19.9349 42.8796 19.9349 43.4143V54.9587C19.9349 55.4933 20.3651 55.9236 20.8998 55.9236H22.6321C23.1668 55.9236 23.597 55.4933 23.597 54.9587V43.4143C23.597 42.8796 23.1668 42.4494 22.6321 42.4494H20.8998Z" fill="#FAFF00"/>
<path id="Vector_13" d="M17.8067 53.4015H16.0743C14.9 53.4015 13.9468 52.4483 13.9468 51.274V47.1235C13.9468 45.9492 14.9 44.996 16.0743 44.996H17.8067C18.981 44.996 19.9342 45.9492 19.9342 47.1235C19.9342 47.4491 19.6784 47.7049 19.3529 47.7049C19.0274 47.7049 18.7715 47.4491 18.7715 47.1235C18.7715 46.5889 18.3413 46.1586 17.8067 46.1586H16.0743C15.5397 46.1586 15.1094 46.5889 15.1094 47.1235V51.274C15.1094 51.8086 15.5397 52.2389 16.0743 52.2389H17.8067C18.3413 52.2389 18.7715 51.8086 18.7715 51.274C18.7715 50.9485 19.0274 50.6926 19.3529 50.6926C19.6784 50.6926 19.9342 50.9485 19.9342 51.274C19.9342 52.4483 18.981 53.4015 17.8067 53.4015Z" fill="#FAFF00"/>
<path id="Vector_14" d="M47.9773 57.0983H46.245C45.0706 57.0983 44.1174 56.1451 44.1174 54.9708V43.4263C44.1174 42.252 45.0706 41.2988 46.245 41.2988H47.9773C49.1517 41.2988 50.1049 42.252 50.1049 43.4263V54.9708C50.1049 56.1451 49.1517 57.0983 47.9773 57.0983ZM46.245 42.4494C45.7103 42.4494 45.2801 42.8796 45.2801 43.4143V54.9587C45.2801 55.4933 45.7104 55.9236 46.245 55.9236H47.9773C48.512 55.9236 48.9422 55.4933 48.9422 54.9587V43.4143C48.9422 42.8796 48.512 42.4494 47.9773 42.4494H46.245Z" fill="#FAFF00"/>
<path id="Vector_15" d="M52.8138 53.4015H51.0814C49.9071 53.4015 48.9539 52.4483 48.9539 51.274C48.9539 50.9485 49.2097 50.6926 49.5352 50.6926C49.8607 50.6926 50.1166 50.9485 50.1166 51.274C50.1166 51.8086 50.5468 52.2389 51.0814 52.2389H52.8138C53.3485 52.2389 53.7787 51.8086 53.7787 51.274V47.1235C53.7787 46.5889 53.3484 46.1586 52.8138 46.1586H51.0814C50.5468 46.1586 50.1166 46.5889 50.1166 47.1235C50.1166 47.4491 49.8607 47.7049 49.5352 47.7049C49.2097 47.7049 48.9539 47.4491 48.9539 47.1235C48.9539 45.9492 49.9071 44.996 51.0814 44.996H52.8138C53.9881 44.996 54.9413 45.9492 54.9413 47.1235V51.274C54.9413 52.4483 53.9877 53.4015 52.8138 53.4015Z" fill="#FAFF00"/>
<path id="Vector_16" d="M47.1402 39.415H45.8498C44.8966 39.415 44.1174 38.6362 44.1174 37.6826V25.3469C44.1174 24.3937 44.8962 23.6145 45.8498 23.6145H47.1402C48.0934 23.6145 48.8725 24.3933 48.8725 25.3469V37.6826C48.8725 38.6362 48.0938 39.415 47.1402 39.415ZM45.8498 24.7773C45.5359 24.7773 45.2801 25.0331 45.2801 25.3469V37.6939C45.2801 38.0077 45.5359 38.2636 45.8498 38.2636H47.1402C47.454 38.2636 47.7098 38.0077 47.7098 37.6939V25.3469C47.7098 25.0331 47.454 24.7773 47.1402 24.7773H45.8498Z" fill="#FAFF00"/>
<path id="Vector_17" d="M50.7322 37.1485H49.4418C48.4886 37.1485 47.7095 36.3697 47.7095 35.4161C47.7095 35.0906 47.9653 34.8348 48.2908 34.8348C48.6164 34.8348 48.8722 35.0906 48.8722 35.4161C48.8722 35.73 49.128 35.9858 49.4418 35.9858H50.7322C51.0461 35.9858 51.3019 35.73 51.3019 35.4161V27.6148C51.3019 27.301 51.0461 27.0451 50.7322 27.0451H49.4418C49.128 27.0451 48.8722 27.301 48.8722 27.6148C48.8722 27.9403 48.6164 28.1962 48.2908 28.1962C47.9653 28.1962 47.7095 27.9403 47.7095 27.6148C47.7095 26.6616 48.4882 25.8824 49.4418 25.8824H50.7322C51.6854 25.8824 52.4646 26.6612 52.4646 27.6148V35.4161C52.4646 36.3697 51.6858 37.1485 50.7322 37.1485Z" fill="#FAFF00"/>
<path id="Vector_18" d="M54.3245 35.5789H53.0341C52.0809 35.5789 51.3018 34.8001 51.3018 33.8465C51.3018 33.521 51.5576 33.2652 51.8831 33.2652C52.2086 33.2652 52.4645 33.521 52.4645 33.8465C52.4645 34.1604 52.7203 34.4162 53.0341 34.4162H54.3245C54.6384 34.4162 54.8942 34.1604 54.8942 33.8465V29.1845C54.8942 28.8706 54.6384 28.6148 54.3245 28.6148H53.0341C52.7203 28.6148 52.4645 28.8706 52.4645 29.1845C52.4645 29.51 52.2086 29.7658 51.8831 29.7658C51.5576 29.7658 51.3018 29.51 51.3018 29.1845C51.3018 28.2312 52.0805 27.4521 53.0341 27.4521H54.3245C55.2777 27.4521 56.0569 28.2309 56.0569 29.1845V33.8465C56.0569 34.8001 55.2781 35.5789 54.3245 35.5789Z" fill="#FAFF00"/>
<path id="Vector_19" d="M58.8125 34.1252H55.4759C55.1504 34.1252 54.8945 33.8694 54.8945 33.5439C54.8945 33.2184 55.1504 32.9625 55.4759 32.9625H58.2312V30.0562H55.4759C55.1504 30.0562 54.8945 29.8004 54.8945 29.4748C54.8945 29.1493 55.1504 28.8935 55.4759 28.8935H58.8125C59.1381 28.8935 59.3939 29.1493 59.3939 29.4748V33.5439C59.3939 33.8695 59.1381 34.1252 58.8125 34.1252Z" fill="#FAFF00"/>
</g>
</g>
</svg>
