<svg width="59" height="59" viewBox="0 0 59 59" fill="none" xmlns="http://www.w3.org/2000/svg">
<g id="icon: fitness zones">
<g id="Group">
<path id="Vector" d="M14.0188 46.5695H14.0109C11.6091 46.5695 9.65503 44.6158 9.65503 42.214V28.3085C9.65503 27.8071 10.0613 27.4008 10.5628 27.4008H17.4666C17.9681 27.4008 18.3744 27.807 18.3744 28.3085V42.2148C18.3744 44.6163 16.4206 46.57 14.0188 46.57L14.0188 46.5695ZM11.4705 29.2159V42.2145C11.4705 43.6147 12.6101 44.7543 14.011 44.7543H14.0189C15.4195 44.7543 16.559 43.6147 16.559 42.2141V29.2164L11.4705 29.2159Z" fill="#FAFF00"/>
<path id="Vector_2" d="M16.1033 29.2159H11.9256C11.4241 29.2159 11.0178 28.8097 11.0178 28.3082V25.4941C11.0178 24.4929 11.832 23.6787 12.8333 23.6787H15.1955C16.1968 23.6787 17.011 24.4929 17.011 25.4941V28.3082C17.011 28.8093 16.6048 29.2159 16.1033 29.2159ZM12.8333 27.4005H15.1955V25.4942H12.8333V27.4005Z" fill="#FAFF00"/>
<path id="Vector_3" d="M47.3682 29.2159H43.1905C42.689 29.2159 42.2827 28.8097 42.2827 28.3082V25.4941C42.2827 24.4929 43.0969 23.6787 44.0981 23.6787H46.4604C47.4616 23.6787 48.2758 24.4929 48.2758 25.4941V28.3082C48.2758 28.8093 47.8693 29.2159 47.3682 29.2159ZM44.0981 27.4005H46.4604V25.4942H44.0981V27.4005Z" fill="#FAFF00"/>
<path id="Vector_4" d="M45.2838 46.5695H45.2752C42.8734 46.5695 40.9197 44.6158 40.9197 42.214V28.3085C40.9197 27.8071 41.326 27.4008 41.8274 27.4008H48.7313C49.2327 27.4008 49.639 27.807 49.639 28.3085V42.2148C49.639 44.6163 47.6853 46.57 45.2838 46.57L45.2838 46.5695ZM42.7352 29.2159V42.2145C42.7352 43.6147 43.8747 44.7543 45.2753 44.7543H45.2838C46.6844 44.7543 47.824 43.6147 47.824 42.2141L47.8236 29.2164L42.7352 29.2159Z" fill="#FAFF00"/>
<path id="Vector_5" d="M19.1215 29.216H8.90776C8.40632 29.216 8 28.8097 8 28.3083C8 27.8068 8.40628 27.4005 8.90776 27.4005H19.1215C19.6229 27.4005 20.0293 27.8068 20.0293 28.3083C20.0293 28.8094 19.623 29.216 19.1215 29.216Z" fill="#FAFF00"/>
<path id="Vector_6" d="M50.3865 29.216H40.1736C39.6722 29.216 39.2659 28.8097 39.2659 28.3083C39.2659 27.8068 39.6722 27.4005 40.1736 27.4005H50.3865C50.888 27.4005 51.2943 27.8068 51.2943 28.3083C51.2943 28.8094 50.888 29.216 50.3869 29.216H50.3865Z" fill="#FAFF00"/>
<path id="Vector_7" d="M29.9009 34.601C27.2303 34.601 25.0584 32.4289 25.0584 29.7585V9.88311C25.0584 7.08853 22.7846 4.81543 19.9904 4.81543C17.1958 4.81543 14.9227 7.08853 14.9227 9.88311V24.5859C14.9227 25.0873 14.5164 25.4937 14.0149 25.4937C13.5135 25.4937 13.1072 25.0874 13.1072 24.5859V9.88311C13.1072 6.08798 16.1952 3 19.9903 3C23.7858 3 26.8737 6.08798 26.8737 9.88311V29.7585C26.8737 31.4278 28.2318 32.7856 29.9008 32.7856C31.5704 32.7856 32.9285 31.4275 32.9285 29.7585V17.8683C32.9285 14.2128 35.9025 11.2388 39.5581 11.2388C43.2136 11.2388 46.1876 14.2128 46.1876 17.8683L46.1873 24.5862C46.1873 25.0876 45.781 25.4939 45.2795 25.4939C44.7781 25.4939 44.3718 25.0876 44.3718 24.5862V17.8683C44.3718 15.214 42.212 13.0542 39.5576 13.0542C36.9033 13.0542 34.7435 15.214 34.7435 17.8683V29.7585C34.7435 32.429 32.5712 34.6013 29.9007 34.6013L29.9009 34.601Z" fill="#FAFF00"/>
<path id="Vector_8" d="M17.4661 37.8931H10.5623C10.0609 37.8931 9.65454 37.4869 9.65454 36.9854C9.65454 36.4839 10.0608 36.0776 10.5623 36.0776H17.4661C17.9676 36.0776 18.3739 36.4839 18.3739 36.9854C18.3739 37.4865 17.9673 37.8931 17.4661 37.8931Z" fill="#FAFF00"/>
<path id="Vector_9" d="M17.4661 33.9082H10.5623C10.0609 33.9082 9.65454 33.5019 9.65454 33.0004C9.65454 32.4989 10.0608 32.0927 10.5623 32.0927H17.4661C17.9676 32.0927 18.3739 32.4989 18.3739 33.0004C18.3739 33.5019 17.9673 33.9082 17.4661 33.9082Z" fill="#FAFF00"/>
<path id="Vector_10" d="M17.4661 41.8774H10.5623C10.0609 41.8774 9.65454 41.4711 9.65454 40.9696C9.65454 40.4682 10.0608 40.0619 10.5623 40.0619H17.4661C17.9676 40.0619 18.3739 40.4682 18.3739 40.9696C18.3739 41.4711 17.9673 41.8774 17.4661 41.8774Z" fill="#FAFF00"/>
<path id="Vector_11" d="M48.732 37.8931H41.8282C41.3267 37.8931 40.9204 37.4869 40.9204 36.9854C40.9204 36.4839 41.3267 36.0776 41.8282 36.0776H48.732C49.2334 36.0776 49.6398 36.4839 49.6398 36.9854C49.6398 37.4865 49.2335 37.8931 48.732 37.8931Z" fill="#FAFF00"/>
<path id="Vector_12" d="M48.732 33.9082H41.8282C41.3267 33.9082 40.9204 33.5019 40.9204 33.0004C40.9204 32.4989 41.3267 32.0927 41.8282 32.0927H48.732C49.2334 32.0927 49.6398 32.4989 49.6398 33.0004C49.6398 33.5019 49.2335 33.9082 48.732 33.9082Z" fill="#FAFF00"/>
<path id="Vector_13" d="M48.732 41.8774H41.8282C41.3267 41.8774 40.9204 41.4711 40.9204 40.9696C40.9204 40.4682 41.3267 40.0619 41.8282 40.0619H48.732C49.2334 40.0619 49.6398 40.4682 49.6398 40.9696C49.6398 41.4711 49.2335 41.8774 48.732 41.8774Z" fill="#FAFF00"/>
</g>
</g>
</svg>
