<svg width="67" height="67" viewBox="0 0 67 67" fill="none" xmlns="http://www.w3.org/2000/svg">
<g id="icon:time">
<g id="Group">
<path id="Vector" d="M59.0117 23.7238C59.0117 29.9728 56.5292 35.966 52.1104 40.3848C47.6916 44.8037 41.6984 47.2859 35.4493 47.2859C29.2002 47.2859 23.2071 44.8038 18.7882 40.3848C14.3694 35.966 11.8872 29.9729 11.8872 23.7238C11.8872 17.4746 14.3693 11.4815 18.7882 7.06267C23.2071 2.64384 29.2002 0.161377 35.4493 0.161377C35.8561 0.161377 36.1855 0.491119 36.1855 0.897903C36.1855 1.30435 35.8561 1.63409 35.4493 1.63409C30.4484 1.63306 25.5957 3.32869 21.6827 6.44325C17.7706 9.55817 15.0306 13.9082 13.9113 18.7819C12.7917 23.6559 13.3587 28.7653 15.5197 33.2753C17.6802 37.7852 21.3071 41.4285 25.8072 43.6101C30.3071 45.7913 35.4144 46.3816 40.2926 45.2842C45.1716 44.1867 49.5343 41.4666 52.6663 37.5686C55.799 33.6705 57.5166 28.8251 57.5382 23.8247C57.5597 18.8238 55.8843 13.9632 52.7858 10.0388L52.592 11.9793C52.5544 12.3556 52.238 12.6422 51.8599 12.6425C51.836 12.6425 51.811 12.6425 51.786 12.6388C51.3812 12.598 51.0861 12.2371 51.1265 11.8327L51.4946 8.1511H51.4949C51.5353 7.74671 51.8959 7.45154 52.3003 7.49161L55.9788 7.85936C56.3836 7.90011 56.6787 8.26101 56.638 8.66574C56.5972 9.07013 56.2363 9.36529 55.8316 9.32454L53.949 9.13656H53.9493C57.2331 13.2893 59.017 18.43 59.0112 23.7245L59.0117 23.7238ZM35.4493 6.06249C40.1332 6.06249 44.6253 7.9232 47.937 11.2353C51.2487 14.5475 53.1099 19.0396 53.1099 23.7231C53.1099 28.4065 51.2492 32.8991 47.937 36.2108C44.6249 39.5225 40.1328 41.3836 35.4493 41.3836C30.7659 41.3836 26.2733 39.5229 22.9616 36.2108C19.6499 32.8986 17.7888 28.4065 17.7888 23.7231C17.7939 19.0406 19.6567 14.5514 22.9674 11.2406C26.2782 7.92977 30.7672 6.06705 35.4499 6.06197L35.4493 6.06249ZM44.4903 13.6435L46.3558 11.7732C43.5655 9.21571 39.9643 7.72141 36.1831 7.55162V10.2026C36.1831 10.6093 35.8534 10.9387 35.4469 10.9387C35.0401 10.9387 34.7104 10.6093 34.7104 10.2026V7.55162C30.9295 7.72146 27.3283 9.21571 24.5377 11.7732L26.408 13.6431C26.6956 13.9307 26.6956 14.3971 26.408 14.6848C26.1204 14.9724 25.654 14.9724 25.3664 14.6848L23.4964 12.8145C20.9389 15.6048 19.4446 19.206 19.2748 22.9872H21.9258C22.3322 22.9872 22.662 23.3166 22.662 23.7234C22.662 24.1301 22.3322 24.4595 21.9258 24.4595H19.2748C19.4447 28.2408 20.9389 31.842 23.4964 34.6322L25.3664 32.7668C25.5037 32.625 25.692 32.5439 25.8896 32.5425C26.0871 32.5408 26.2772 32.6185 26.4165 32.7582C26.5562 32.8979 26.6336 33.0879 26.6319 33.2855C26.6302 33.4827 26.549 33.6714 26.4069 33.8084L24.5377 35.6738C27.3277 38.2313 30.9285 39.726 34.7095 39.8954V37.2448C34.7095 36.838 35.0393 36.5083 35.4457 36.5083C35.8525 36.5083 36.1822 36.838 36.1822 37.2448V39.8954C39.9635 39.7256 43.5643 38.2313 46.3549 35.6738L44.4895 33.8084H44.4898C44.2022 33.5208 44.2022 33.0544 44.4898 32.7667C44.7774 32.4791 45.2438 32.4791 45.5314 32.7667L47.3969 34.6322H47.3965C49.954 31.8419 51.4487 28.2407 51.6181 24.4595H48.9675C48.5608 24.4595 48.2314 24.1301 48.2314 23.7233C48.2314 23.3165 48.5608 22.9871 48.9675 22.9871H51.6181C51.4486 19.2059 49.9544 15.6051 47.3965 12.8153L45.5311 14.6846H45.5314C45.2424 14.9636 44.7833 14.9599 44.4991 14.676C44.2149 14.3921 44.2108 13.933 44.4899 13.6437L44.4903 13.6435ZM40.7444 27.9773V27.9776C41.032 28.2652 41.032 28.7313 40.7444 29.0189C40.4564 29.3065 39.9904 29.3062 39.7027 29.0185L36.382 25.6978C35.8413 25.9536 35.2198 25.9765 34.6617 25.7615C34.1039 25.5465 33.6585 25.1119 33.4297 24.5593C33.201 24.007 33.2088 23.3848 33.4513 22.8379C33.6937 22.2914 34.1498 21.8683 34.7131 21.6673V14.4749C34.7131 14.0681 35.0425 13.7383 35.4493 13.7383C35.8561 13.7383 36.1855 14.0681 36.1855 14.4749V21.6673C36.7662 21.8744 37.2319 22.3179 37.4675 22.8873C37.7034 23.4567 37.6876 24.0994 37.4236 24.6566L40.7444 27.9773ZM35.4493 24.4354C35.7373 24.4354 35.9968 24.2618 36.1068 23.9957C36.217 23.73 36.1561 23.4239 35.9527 23.2201C35.7489 23.0167 35.4428 22.9558 35.1771 23.0661C34.911 23.176 34.7374 23.4355 34.7374 23.7235C34.7381 24.1162 35.0566 24.4347 35.4493 24.4354Z" fill="#FAFF00"/>
</g>
</g>
</svg>
